<svg xmlns="http://www.w3.org/2000/svg" width="75.096" height="75.096" viewBox="0 0 75.096 75.096">
  <path id="Icon_awesome-user-circle" data-name="Icon awesome-user-circle" d="M37.548.562A37.548,37.548,0,1,0,75.1,38.11,37.541,37.541,0,0,0,37.548.562Zm0,14.535A13.323,13.323,0,1,1,24.224,28.421,13.324,13.324,0,0,1,37.548,15.1Zm0,52.083A29.013,29.013,0,0,1,15.367,56.854,16.88,16.88,0,0,1,30.281,47.8a3.7,3.7,0,0,1,1.075.167,20.046,20.046,0,0,0,6.192,1.045,19.97,19.97,0,0,0,6.192-1.045,3.7,3.7,0,0,1,1.075-.167,16.88,16.88,0,0,1,14.913,9.054A29.013,29.013,0,0,1,37.548,67.18Z" transform="translate(0 -0.563)" fill="#8c98b3" opacity="0.44"/>
</svg>
