<svg xmlns="http://www.w3.org/2000/svg" width="24.134" height="19.5" viewBox="0 0 24.134 19.5">
  <path id="Icon_awesome-user-cog" data-name="Icon awesome-user-cog" d="M22.059,13.488a4.239,4.239,0,0,0,0-1.539l.932-.538a.262.262,0,0,0,.119-.307,5.422,5.422,0,0,0-1.2-2.074.264.264,0,0,0-.325-.051l-.932.538a4.242,4.242,0,0,0-1.333-.77V7.671a.263.263,0,0,0-.206-.257,5.452,5.452,0,0,0-2.392,0,.263.263,0,0,0-.206.257V8.748a4.242,4.242,0,0,0-1.333.77l-.932-.538a.264.264,0,0,0-.325.051,5.422,5.422,0,0,0-1.2,2.074.266.266,0,0,0,.119.307l.932.538a4.239,4.239,0,0,0,0,1.539l-.932.538a.262.262,0,0,0-.119.307,5.449,5.449,0,0,0,1.2,2.074.264.264,0,0,0,.325.051l.932-.538a4.242,4.242,0,0,0,1.333.77v1.077a.263.263,0,0,0,.206.257,5.452,5.452,0,0,0,2.392,0,.263.263,0,0,0,.206-.257V16.69a4.242,4.242,0,0,0,1.333-.77l.932.538a.264.264,0,0,0,.325-.051,5.422,5.422,0,0,0,1.2-2.074.266.266,0,0,0-.119-.307l-.932-.538Zm-4.137.983a1.752,1.752,0,1,1,1.752-1.752A1.754,1.754,0,0,1,17.922,14.471ZM8.094,9.25A4.625,4.625,0,1,0,3.469,4.625,4.625,4.625,0,0,0,8.094,9.25Zm7.27,8.184c-.083-.043-.166-.094-.246-.141l-.285.166A1.418,1.418,0,0,1,13.08,17.2a6.589,6.589,0,0,1-1.453-2.515,1.413,1.413,0,0,1,.647-1.651l.285-.166q-.005-.141,0-.282l-.285-.166a1.412,1.412,0,0,1-.647-1.651c.033-.1.079-.21.116-.314-.137-.011-.271-.043-.412-.043h-.6a6.29,6.29,0,0,1-5.268,0h-.6A4.858,4.858,0,0,0,0,15.262v1.5A1.735,1.735,0,0,0,1.734,18.5H14.453a1.732,1.732,0,0,0,.983-.307,1.407,1.407,0,0,1-.072-.426Z" transform="translate(0.5 0.5)" fill="none" stroke="#303030" stroke-width="1"/>
</svg>
