<svg xmlns="http://www.w3.org/2000/svg" width="35.722" height="35.844" viewBox="0 0 35.722 35.844">
  <g id="_3451767-200" data-name="3451767-200" transform="translate(-25.163 174.844)">
    <path id="Path_83924" data-name="Path 83924" d="M125.152-174.546c-.239.622.1,1.148.67,1.053.407-.048.55-.239.55-.67s-.144-.622-.55-.67A.584.584,0,0,0,125.152-174.546Z" transform="translate(-76.011 0)" fill="#e3141e"/>
    <path id="Path_83925" data-name="Path 83925" d="M169.152-174.546c-.239.622.1,1.148.67,1.053.407-.048.55-.239.55-.67s-.144-.622-.55-.67A.584.584,0,0,0,169.152-174.546Z" transform="translate(-109.486 0)" fill="#e3141e"/>
    <path id="Path_83926" data-name="Path 83926" d="M50.367-168.568c-.431.5-.12,1.124.526,1.029.622-.072.885-.861.383-1.172C50.846-169,50.7-168.974,50.367-168.568Z" transform="translate(-19.024 -4.519)" fill="#e3141e"/>
    <path id="Path_83927" data-name="Path 83927" d="M145.743-168.668a1.128,1.128,0,0,0-.287.718.4.4,0,0,1-.431.431c-1.148,0-1.387,1.363-.287,1.579.55.12.718.287.718.718a.705.705,0,0,0,.478.694c.646.191.957-.024.957-.694,0-.431.167-.6.718-.718.574-.1.718-.263.718-.742s-.144-.646-.718-.765c-.55-.1-.718-.263-.718-.67a.739.739,0,0,0-.383-.694C146.03-169,146.078-169,145.743-168.668Z" transform="translate(-90.431 -4.491)" fill="#e3141e"/>
    <path id="Path_83928" data-name="Path 83928" d="M68.29-155.539a8.027,8.027,0,0,0-5.478,9.018c.239,1.818,1.363,4.019,2.081,4.114.837.12.885-.526.144-2.033a6.9,6.9,0,0,1-.789-3.134,4.921,4.921,0,0,1,.67-3.253,5.662,5.662,0,0,1,5.765-3.421c4.9.574,7.033,6.483,3.923,10.74-.718.957-.813,1.22-.574,1.507.478.574.861.431,1.794-.646a8.583,8.583,0,0,0,1.029-8.611,6.947,6.947,0,0,0-6.267-4.4A8.6,8.6,0,0,0,68.29-155.539Z" transform="translate(-28.574 -14.582)" fill="#1d4395"/>
    <path id="Path_83929" data-name="Path 83929" d="M26.847-149.57a1.21,1.21,0,0,0-.287.718.409.409,0,0,1-.454.431.918.918,0,0,0-.909,1.076,1.344,1.344,0,0,0,.765.5c.359.1.6.311.6.574,0,.55.622,1.053,1.076.861a.77.77,0,0,0,.359-.694c0-.454.167-.622.718-.742a1.159,1.159,0,0,0,.861-.5c.191-.5-.335-1.076-1-1.076-.407,0-.55-.144-.622-.646C27.875-149.785,27.325-150.049,26.847-149.57Z" transform="translate(0 -19.044)" fill="#e3141e"/>
    <path id="Path_83930" data-name="Path 83930" d="M85.288-136.238a7.316,7.316,0,0,1-1.651,1.34,1.51,1.51,0,0,1-.67-.478c-.526-.574-1.22-.622-1.411-.072-.191.454,1.651,2.464,2.249,2.464.478,0,3.588-3.134,3.588-3.636a1.1,1.1,0,0,0-.359-.67C86.747-137.529,86.436-137.338,85.288-136.238Z" transform="translate(-42.892 -28.501)" fill="#e3141e"/>
    <path id="Path_83931" data-name="Path 83931" d="M137.811-137.189a.609.609,0,0,0-.144.837.645.645,0,0,0,1.148.167.645.645,0,0,0-.167-1.148A.609.609,0,0,0,137.811-137.189Z" transform="translate(-85.513 -28.459)" fill="#e3141e"/>
    <path id="Path_83932" data-name="Path 83932" d="M73.641-112.326a2.339,2.339,0,0,0-1.076.67c-.55.574-.574.789-.646,4.425l-.072,3.8h-.718a2.13,2.13,0,0,0-1.435.694l-.694.694v3.756c0,3.229.072,3.851.478,4.641a4.216,4.216,0,0,0,2.99,2.105c.789.12.837.1.837-.574,0-.622-.12-.742-.957-1-1.651-.478-1.914-1.22-1.914-5.071,0-3.4.167-3.995,1.053-3.66.311.12.383.526.383,2.272v2.129h1.435l.024-1.866c.024-1,0-3.8-.024-6.2a19.77,19.77,0,0,1,.239-4.832c.311-.6,1.076-.67,1.292-.12.072.215.144,2.512.144,5.143v4.76h1.411l.072-2.105c.072-2.033.072-2.081.67-2.081s.6.048.67,2.081l.072,2.105h.67c.646,0,.694-.072.789-1.22.144-1.411.478-1.89,1.1-1.507.287.191.431.646.478,1.507.072,1.172.1,1.22.789,1.22.526,0,.694-.12.694-.454a.831.831,0,0,1,1.053-.837c.335.12.383.646.383,3.732v3.588l-.694.694A3.32,3.32,0,0,1,81.7-93c-.622.144-.742.263-.742.837,0,.526.12.694.478.694a4.614,4.614,0,0,0,3.134-1.746l.694-.957v-8.013l-.742-.622a2.532,2.532,0,0,0-1.411-.622,2.121,2.121,0,0,1-1.387-.718,2.028,2.028,0,0,0-1.483-.718,1.864,1.864,0,0,1-1.435-.718,1.806,1.806,0,0,0-1.531-.718h-.861v-2.249c0-2.057-.048-2.32-.6-2.966A2.121,2.121,0,0,0,73.641-112.326Z" transform="translate(-33.351 -47.533)" fill="#1d4395"/>
    <path id="Path_83933" data-name="Path 83933" d="M44.165-111.839a.739.739,0,0,0,.239,1.124c.5.191,1.148-.407.957-.909A.828.828,0,0,0,44.165-111.839Z" transform="translate(-14.328 -47.805)" fill="#e3141e"/>
    <path id="Path_83934" data-name="Path 83934" d="M163.171-99.594a.722.722,0,0,0,.6,1.076.666.666,0,0,0,.478-1.1C163.889-100.048,163.338-100.048,163.171-99.594Z" transform="translate(-104.94 -56.988)" fill="#e3141e"/>
  </g>
</svg>
