<svg xmlns="http://www.w3.org/2000/svg" width="58" height="58" viewBox="0 0 58 58">
  <g id="Group_18250" data-name="Group 18250" transform="translate(-150 -543)">
    <path id="Path_7934" data-name="Path 7934" d="M29,0A29,29,0,1,1,0,29,29,29,0,0,1,29,0Z" transform="translate(150 543)" fill="#e3141e"/>
    <path id="Icon_metro-contacts-dialer" data-name="Icon metro-contacts-dialer" d="M30.849,6.427H5.141A2.57,2.57,0,0,0,2.571,9V26.992a2.57,2.57,0,0,0,2.571,2.571H30.849a2.559,2.559,0,0,0,2.558-2.571L33.419,9a2.57,2.57,0,0,0-2.571-2.571ZM12.854,10.283A3.856,3.856,0,1,1,9,14.139a3.859,3.859,0,0,1,3.856-3.856Zm7.712,15.424H5.141V24.422c0-2.571,5.141-3.985,7.712-3.985s7.712,1.414,7.712,3.985Zm4.949-5.141h2.108l1.941,2.571L27,25.7a9.653,9.653,0,0,1-3.862-7.706,9.444,9.444,0,0,1,.36-2.571,9.588,9.588,0,0,1,3.509-5.135l2.558,2.564-1.941,2.571H25.514a7.746,7.746,0,0,0-.45,2.571,7.585,7.585,0,0,0,.45,2.571Z" transform="translate(161.005 554.005)" fill="none" stroke="#fff" stroke-width="1"/>
  </g>
</svg>
