<svg xmlns="http://www.w3.org/2000/svg" width="20.208" height="23.009" viewBox="0 0 20.208 23.009">
  <path id="Icon_awesome-copy" data-name="Icon awesome-copy" d="M14.005,19.608v1.751a1.05,1.05,0,0,1-1.05,1.05H1.05A1.05,1.05,0,0,1,0,21.358V5.252A1.05,1.05,0,0,1,1.05,4.2H4.2V17.157a2.454,2.454,0,0,0,2.451,2.451Zm0-15.056V0H6.653A1.05,1.05,0,0,0,5.6,1.05V17.157a1.05,1.05,0,0,0,1.05,1.05h11.9a1.05,1.05,0,0,0,1.05-1.05V5.6H15.056A1.053,1.053,0,0,1,14.005,4.552ZM19.3,3.194,16.414.308A1.05,1.05,0,0,0,15.671,0h-.265V4.2h4.2V3.936a1.05,1.05,0,0,0-.308-.743Z" transform="translate(0.3 0.3)" fill="none" stroke="#1d4395" stroke-width="0.6"/>
</svg>
