<svg xmlns="http://www.w3.org/2000/svg" width="58" height="58" viewBox="0 0 58 58">
  <g id="Group_18249" data-name="Group 18249" transform="translate(-150 -543)">
    <path id="Path_7934" data-name="Path 7934" d="M29,0A29,29,0,1,1,0,29,29,29,0,0,1,29,0Z" transform="translate(150 543)" fill="#fff"/>
    <path id="Icon_awesome-mail-bulk" data-name="Icon awesome-mail-bulk" d="M9.332,26.129c-1.493,0-2.986-1.306-3.733-1.866C1.866,21.65.747,20.716,0,20.157V28a1.867,1.867,0,0,0,1.866,1.866H16.8A1.867,1.867,0,0,0,18.663,28V20.157c-.747.56-1.866,1.493-5.6,4.106C12.318,24.822,10.825,26.129,9.332,26.129Zm7.465-11.2H1.866A1.867,1.867,0,0,0,0,16.8v.933c1.493,1.12,1.306,1.12,6.719,5.039.56.373,1.68,1.493,2.613,1.493s2.053-1.12,2.613-1.306c5.412-3.919,5.226-3.919,6.719-5.039V16.8A1.867,1.867,0,0,0,16.8,14.931Zm14.931-5.6H13.064A1.867,1.867,0,0,0,11.2,11.2v1.866h5.6a3.738,3.738,0,0,1,3.716,3.372l.017-.013v7.839h11.2A1.867,1.867,0,0,0,33.594,22.4V11.2A1.867,1.867,0,0,0,31.728,9.332ZM29.862,16.8H26.129V13.064h3.733ZM9.332,11.2a3.737,3.737,0,0,1,3.733-3.733H26.129v-5.6A1.867,1.867,0,0,0,24.263,0H5.6A1.867,1.867,0,0,0,3.733,1.866v11.2h5.6Z" transform="translate(162.703 557.569)" fill="none" stroke="#1e403c" stroke-width="1"/>
  </g>
</svg>
