<svg xmlns="http://www.w3.org/2000/svg" width="70" height="70" viewBox="0 0 70 70">
  <g id="neww" transform="translate(-2 -2)">
    <path id="Path_83800" data-name="Path 83800" d="M16.515,48.268a.972.972,0,0,1-.941-1.219L19.122,33.5,10.3,25.17a.973.973,0,0,1,.519-1.668l12.091-1.873,5.654-11.7a1.012,1.012,0,0,1,1.75,0l5.654,11.7L48.063,23.5a.973.973,0,0,1,.519,1.668L39.764,33.5l3.549,13.549a.972.972,0,0,1-1.388,1.11L29.445,41.674,16.964,48.159A.969.969,0,0,1,16.515,48.268Zm12.931-8.663a.958.958,0,0,1,.447.111l10.986,5.709L37.74,33.438a.967.967,0,0,1,.272-.953l7.793-7.362L35.174,23.476a.968.968,0,0,1-.727-.537l-5-10.354-5,10.35a.968.968,0,0,1-.727.537L13.083,25.119l7.793,7.362a.972.972,0,0,1,.274.953L18.01,45.421,29,39.712A1.017,1.017,0,0,1,29.445,39.605Z" transform="translate(7.555 7.01)" fill="#e3141e"/>
    <path id="Path_83801" data-name="Path 83801" d="M37,72A35,35,0,1,1,72,37,35.04,35.04,0,0,1,37,72ZM37,3.944A33.056,33.056,0,1,0,70.056,37,33.093,33.093,0,0,0,37,3.944Z" fill="#1d4395"/>
  </g>
</svg>
