<svg xmlns="http://www.w3.org/2000/svg" width="40.959" height="54.111" viewBox="0 0 40.959 54.111">
  <path id="Icon_awesome-file-alt" data-name="Icon awesome-file-alt" d="M23.018,13.975V0H2.466A2.46,2.46,0,0,0,0,2.466V50.145a2.46,2.46,0,0,0,2.466,2.466H36.992a2.46,2.46,0,0,0,2.466-2.466v-33.7H25.484A2.473,2.473,0,0,1,23.018,13.975Zm6.576,24.251a1.237,1.237,0,0,1-1.233,1.233H11.1a1.237,1.237,0,0,1-1.233-1.233V37.4A1.237,1.237,0,0,1,11.1,36.17H28.361A1.237,1.237,0,0,1,29.594,37.4Zm0-6.576a1.237,1.237,0,0,1-1.233,1.233H11.1a1.237,1.237,0,0,1-1.233-1.233v-.822A1.237,1.237,0,0,1,11.1,29.594H28.361a1.237,1.237,0,0,1,1.233,1.233Zm0-7.4v.822a1.237,1.237,0,0,1-1.233,1.233H11.1a1.237,1.237,0,0,1-1.233-1.233v-.822A1.237,1.237,0,0,1,11.1,23.018H28.361A1.237,1.237,0,0,1,29.594,24.251Zm9.865-11.725v.627H26.306V0h.627a2.464,2.464,0,0,1,1.747.719l10.06,10.07A2.458,2.458,0,0,1,39.459,12.526Z" transform="translate(0.75 0.75)" fill="none" stroke="#1d4395" stroke-width="1.5"/>
</svg>
