<svg xmlns="http://www.w3.org/2000/svg" width="70.003" height="70.003" viewBox="0 0 70.003 70.003">
  <g id="neww" transform="translate(-2 -2)">
    <path id="Path_83798" data-name="Path 83798" d="M45,10v9.723H35.279l4.432-4.432A17.48,17.48,0,0,0,11.945,29.445H10A19.421,19.421,0,0,1,41.1,13.9Z" transform="translate(7.556 7.556)" fill="#e3141e"/>
    <path id="Path_83799" data-name="Path 83799" d="M37,2A35,35,0,1,0,72,37,35.042,35.042,0,0,0,37,2Zm0,68.058A33.057,33.057,0,1,1,70.058,37,33.094,33.094,0,0,1,37,70.058ZM54.5,37h1.945a19.421,19.421,0,0,1-31.1,15.543l-3.9,3.9V46.724h9.723l-4.432,4.432A17.48,17.48,0,0,0,54.5,37Z" transform="translate(0 0)" fill="#1d4395"/>
  </g>
</svg>
