<svg xmlns="http://www.w3.org/2000/svg" width="24.722" height="20.525" viewBox="0 0 24.722 20.525">
  <g id="Icon_feather-users" data-name="Icon feather-users" transform="translate(-0.75 -3.725)">
    <path id="Path_83840" data-name="Path 83840" d="M18.389,28.833V26.722A4.222,4.222,0,0,0,14.167,22.5H5.722A4.222,4.222,0,0,0,1.5,26.722v2.111" transform="translate(0 -5.333)" fill="none" stroke="#404040" stroke-linecap="round" stroke-linejoin="round" stroke-width="1.5"/>
    <path id="Path_83841" data-name="Path 83841" d="M15.944,8.722A4.222,4.222,0,1,1,11.722,4.5,4.222,4.222,0,0,1,15.944,8.722Z" transform="translate(-1.778)" fill="none" stroke="#404040" stroke-linecap="round" stroke-linejoin="round" stroke-width="1.5"/>
    <path id="Path_83842" data-name="Path 83842" d="M33.167,28.891V26.78A4.222,4.222,0,0,0,30,22.7" transform="translate(-8.444 -5.391)" fill="none" stroke="#404040" stroke-linecap="round" stroke-linejoin="round" stroke-width="1.5"/>
    <path id="Path_83843" data-name="Path 83843" d="M24,4.7a4.222,4.222,0,0,1,0,8.181" transform="translate(-6.667 -0.058)" fill="none" stroke="#404040" stroke-linecap="round" stroke-linejoin="round" stroke-width="1.5"/>
  </g>
</svg>
