<svg xmlns="http://www.w3.org/2000/svg" width="31.578" height="31.578" viewBox="0 0 31.578 31.578">
  <path id="Icon_awesome-arrow-alt-circle-down" data-name="Icon awesome-arrow-alt-circle-down" d="M32.14,16.351A15.789,15.789,0,1,1,16.351.563,15.786,15.786,0,0,1,32.14,16.351ZM13.55,8.966v7.385H9.036A.765.765,0,0,0,8.5,17.656l7.315,7.277a.757.757,0,0,0,1.076,0L24.2,17.656a.764.764,0,0,0-.541-1.305H19.153V8.966a.766.766,0,0,0-.764-.764H14.314A.766.766,0,0,0,13.55,8.966Z" transform="translate(-0.563 -0.563)" fill="#e3141e"/>
</svg>
