<svg xmlns="http://www.w3.org/2000/svg" width="36.413" height="36.485" viewBox="0 0 36.413 36.485">
  <g id="Group_18610" data-name="Group 18610" transform="translate(-242.766 -1539.431)">
    <g id="e-service" transform="translate(243.266 1539.932)">
      <g id="Group_12862" data-name="Group 12862" transform="translate(0 0)">
        <path id="Path_5624" data-name="Path 5624" d="M854.967,325.977l-4-4v-.571a1.714,1.714,0,0,1,1.714-1.714h.571l5.712,5.712a4.461,4.461,0,0,1,1.142,2.856v4.57h-6.282v-1.142a3.539,3.539,0,0,0-1.142-2.285l-4-4a3.538,3.538,0,0,1-1.142-2.285v-9.138a1.714,1.714,0,1,1,3.428,0v4.57" transform="translate(-847.544 -300.845)" fill="none" stroke="#1d4395" stroke-miterlimit="10" stroke-width="1"/>
        <path id="Path_5625" data-name="Path 5625" d="M868.684,325.977l4-4v-.571a1.714,1.714,0,0,0-1.714-1.714H870.4l-5.712,5.712a4.46,4.46,0,0,0-1.142,2.856v4.57h6.283v-1.142a3.538,3.538,0,0,1,1.142-2.285l4-4a3.538,3.538,0,0,0,1.142-2.285v-9.138a1.714,1.714,0,1,0-3.428,0v4.57" transform="translate(-840.696 -300.845)" fill="none" stroke="#1d4395" stroke-miterlimit="10" stroke-width="1"/>
        <path id="Path_5626" data-name="Path 5626" d="M862.743,330.665v-3.428a.571.571,0,0,1,.571-.571h7.425a.571.571,0,0,1,.571.571v3.428" transform="translate(-841.039 -294.681)" fill="none" stroke="#1d4395" stroke-miterlimit="10" stroke-width="1"/>
        <path id="Path_5627" data-name="Path 5627" d="M851.143,330.665v-3.428a.571.571,0,0,1,.571-.571h7.425a.571.571,0,0,1,.571.571v3.428" transform="translate(-846.003 -294.681)" fill="none" stroke="#1d4395" stroke-miterlimit="10" stroke-width="1"/>
        <path id="Path_5628" data-name="Path 5628" d="M874.724,316.9a11.307,11.307,0,0,0,0-2.406l-2.4-.6a9.133,9.133,0,0,0-.3-1.11l1.779-1.722a11.407,11.407,0,0,0-1.213-2.083l-2.378.68a9.407,9.407,0,0,0-.808-.81l.68-2.378A11.419,11.419,0,0,0,868,305.258l-1.721,1.779a9.008,9.008,0,0,0-1.11-.3l-.6-2.4a11.041,11.041,0,0,0-2.4,0l-.6,2.4a9.028,9.028,0,0,0-1.111.3l-1.72-1.779a11.4,11.4,0,0,0-2.083,1.209l.68,2.378a9.412,9.412,0,0,0-.808.81l-2.379-.68a11.4,11.4,0,0,0-1.209,2.083l1.778,1.722a8.853,8.853,0,0,0-.3,1.11l-2.4.6a11.3,11.3,0,0,0,0,2.406l2.4.6a8.988,8.988,0,0,0,.3,1.11l-1.778,1.721a11.358,11.358,0,0,0,1.21,2.083l2.379-.678a9.4,9.4,0,0,0,.808.808l-.68,2.378a11.414,11.414,0,0,0,2.083,1.212l1.724-1.781a9.312,9.312,0,0,0,1.111.3l.6,2.4a11.537,11.537,0,0,0,2.4,0l.6-2.4a9.274,9.274,0,0,0,1.11-.3L868,326.128a11.43,11.43,0,0,0,2.085-1.212l-.68-2.378a9.367,9.367,0,0,0,.808-.808l2.378.678a11.359,11.359,0,0,0,1.212-2.083l-1.779-1.721a9.267,9.267,0,0,0,.3-1.11Z" transform="translate(-845.659 -304.268)" fill="none" stroke="#e3141e" stroke-miterlimit="10" stroke-width="1"/>
        <circle id="Ellipse_371" data-name="Ellipse 371" cx="6.283" cy="6.283" r="6.283" transform="translate(11.299 5.268) rotate(-1.145)" fill="none" stroke="#e3141e" stroke-miterlimit="10" stroke-width="1"/>
        <path id="Path_5629" data-name="Path 5629" d="M865.14,313.467a4,4,0,1,1-4-4,4,4,0,0,1,4,4Z" transform="translate(-843.436 -302.043)" fill="none" stroke="#e3141e" stroke-miterlimit="10" stroke-width="1"/>
      </g>
    </g>
  </g>
</svg>
