<svg xmlns="http://www.w3.org/2000/svg" xmlns:xlink="http://www.w3.org/1999/xlink" width="75" height="75" viewBox="0 0 75 75">
  <defs>
    <linearGradient id="linear-gradient" x1="0.5" x2="0.5" y2="1" gradientUnits="objectBoundingBox">
      <stop offset="0" stop-color="#482123"/>
      <stop offset="1" stop-color="#0b1f4a"/>
    </linearGradient>
  </defs>
  <g id="Group_18370" data-name="Group 18370" transform="translate(-909 -771)">
    <g id="Rectangle_2578" data-name="Rectangle 2578" transform="translate(909 771)" stroke="#ededed" stroke-width="0.4" fill="url(#linear-gradient)">
      <rect width="75" height="75" rx="4" stroke="none"/>
      <rect x="0.2" y="0.2" width="74.6" height="74.6" rx="3.8" fill="none"/>
    </g>
    <g id="_5481993" data-name="5481993" transform="translate(924 786)">
      <path id="Path_7921" data-name="Path 7921" d="M237.276-511.7a1.955,1.955,0,0,0-1.061,1.122,16.36,16.36,0,0,0-.07,2.471l.026,2.114.235.348a1.564,1.564,0,0,0,1.462.766,1.564,1.564,0,0,0,1.462-.766l.235-.357v-2.306c0-2.288,0-2.314-.209-2.645A1.869,1.869,0,0,0,237.276-511.7Z" transform="translate(-215.599 511.779)" fill="#fff"/>
      <path id="Path_7922" data-name="Path 7922" d="M68.087-445.768a1.579,1.579,0,0,1-.322.087,2.026,2.026,0,0,0-1,.87,1.986,1.986,0,0,0,.035,1.575,24.133,24.133,0,0,0,3.245,3.219,1.886,1.886,0,0,0,2.01-.357,1.893,1.893,0,0,0,.3-1.949,23.818,23.818,0,0,0-3.193-3.228A2.148,2.148,0,0,0,68.087-445.768Z" transform="translate(-60.827 451.526)" fill="#fff"/>
      <path id="Path_7923" data-name="Path 7923" d="M381.365-445.744c-.191.07-.365.131-.383.131a34.715,34.715,0,0,0-3.071,3.176,1.846,1.846,0,0,0,.27,1.992,1.886,1.886,0,0,0,2.01.357,24.681,24.681,0,0,0,3.219-3.176,1.555,1.555,0,0,0,.139-1.323,1.672,1.672,0,0,0-1.14-1.166A1.246,1.246,0,0,0,381.365-445.744Z" transform="translate(-344.871 451.598)" fill="#fff"/>
      <path id="Path_7924" data-name="Path 7924" d="M20.422-395.482c-5.934.67-12.651,4.194-18.9,9.927C.41-384.528.175-384.223.088-383.675c-.113.731.07,1.1,1.027,2.036a49.26,49.26,0,0,0,8.892,6.691,27.6,27.6,0,0,0,10.284,3.6c5.473.644,11.493-1.349,18-5.951a40.9,40.9,0,0,0,6.056-5.2,2,2,0,0,0,.044-1.714,24.405,24.405,0,0,0-3.4-3.211c-5.447-4.455-10.71-7.091-15.878-7.935A26.4,26.4,0,0,0,20.422-395.482Zm3.95,3.637a8.714,8.714,0,0,1,6.63,8.84,8.658,8.658,0,0,1-2.541,5.742,8.66,8.66,0,0,1-11.737.5,8.9,8.9,0,0,1-2.889-4.768,10.346,10.346,0,0,1,.026-3.872,8.8,8.8,0,0,1,5.742-6.256A9.333,9.333,0,0,1,24.372-391.845Zm-13.233,3.637a14.387,14.387,0,0,0-.748,2.419A9.465,9.465,0,0,0,10.2-383.4,9.465,9.465,0,0,0,10.39-381a13.62,13.62,0,0,0,.757,2.419c.1.244.1.322.026.27a45.341,45.341,0,0,1-6.421-4.724L4.36-383.4l.435-.4a46.7,46.7,0,0,1,5.412-4.081c.566-.357,1.035-.652,1.053-.652A1.646,1.646,0,0,1,11.138-388.208Zm23.883.7a33.545,33.545,0,0,1,5.186,4.107c0,.357-4.289,3.619-6.508,4.951l-.331.2.139-.331A13.953,13.953,0,0,0,34.264-381a9.465,9.465,0,0,0,.191-2.393,9.465,9.465,0,0,0-.191-2.393,13.953,13.953,0,0,0-.757-2.427l-.139-.331.331.2C33.881-388.243,34.473-387.86,35.021-387.5Z" transform="translate(-0.059 405.651)" fill="#fff"/>
      <path id="Path_7925" data-name="Path 7925" d="M200.108-315.63a4.81,4.81,0,0,0-2.367,1.392,4.735,4.735,0,0,0-1.392,2.4,5.226,5.226,0,0,0,.452,3.715,6.4,6.4,0,0,0,2.132,2.132,5.226,5.226,0,0,0,3.715.452,4.736,4.736,0,0,0,2.4-1.392,4.736,4.736,0,0,0,1.392-2.4,5.226,5.226,0,0,0-.452-3.715,6.4,6.4,0,0,0-2.132-2.132A5.367,5.367,0,0,0,200.108-315.63Zm2.245,3.6a1.557,1.557,0,0,1,.74,1.444,1.564,1.564,0,0,1-.766,1.462,1.871,1.871,0,0,1-1.827.026,1.8,1.8,0,0,1-.766-1.992,1.95,1.95,0,0,1,1.07-1.14A2.109,2.109,0,0,1,202.353-312.028Z" transform="translate(-179.128 332.838)" fill="#fff"/>
      <path id="Path_7926" data-name="Path 7926" d="M70.1-134.441c-.5.122-.8.357-2.149,1.723-1.705,1.723-1.862,2.019-1.6,2.932a1.693,1.693,0,0,0,1.227,1.175,1.632,1.632,0,0,0,1.262-.165A24.674,24.674,0,0,0,72.013-132a1.886,1.886,0,0,0-.357-2.01A1.945,1.945,0,0,0,70.1-134.441Z" transform="translate(-60.49 167.301)" fill="#fff"/>
      <path id="Path_7927" data-name="Path 7927" d="M379.121-134.435a2.069,2.069,0,0,0-.922.5,1.893,1.893,0,0,0-.3,1.949,24.672,24.672,0,0,0,3.176,3.219,1.632,1.632,0,0,0,1.262.165,1.693,1.693,0,0,0,1.227-1.175,1.587,1.587,0,0,0-.139-1.34,25.257,25.257,0,0,0-3.176-3.15A1.815,1.815,0,0,0,379.121-134.435Z" transform="translate(-344.89 167.295)" fill="#fff"/>
      <path id="Path_7928" data-name="Path 7928" d="M237.276-79.7a1.955,1.955,0,0,0-1.061,1.122,16.36,16.36,0,0,0-.07,2.471L236.171-74l.235.348a1.564,1.564,0,0,0,1.462.766,1.564,1.564,0,0,0,1.462-.766l.235-.357V-76.31c0-2.288,0-2.314-.209-2.645A1.869,1.869,0,0,0,237.276-79.7Z" transform="translate(-215.599 117.366)" fill="#fff"/>
    </g>
  </g>
</svg>
