<svg xmlns="http://www.w3.org/2000/svg" width="36.394" height="36.451" viewBox="0 0 36.394 36.451">
  <g id="_650917" data-name="650917" transform="translate(-0.67 511.817)">
    <path id="Path_83920" data-name="Path 83920" d="M114.667-511.751a10.841,10.841,0,0,0-9.308,8.154,9.683,9.683,0,0,0-.278,2.986,8.21,8.21,0,0,0,.264,2.138,10.79,10.79,0,0,0,6.97,7.669c.577.2.691.221.87.143a.5.5,0,0,0,.278-.691c-.071-.157-.214-.242-.7-.413a9.347,9.347,0,0,1-2.894-1.575,9.913,9.913,0,0,1-3.528-5.538,11.846,11.846,0,0,1-.107-3.628,10.012,10.012,0,0,1,1.689-4.141A9.734,9.734,0,0,1,120.2-509.72a9.845,9.845,0,0,1,5.181,6.742,9.693,9.693,0,0,1-2.188,8.36l-.485.563-.014-1.454a8.681,8.681,0,0,0-.1-1.618.546.546,0,0,0-.891-.036,27.376,27.376,0,0,0-.021,4.526c.178.342.264.342,2.723-.014,1.675-.242,1.939-.3,2.088-.442.356-.328.1-.848-.421-.848-.143,0-.7.064-1.233.143a9.747,9.747,0,0,1-1,.121,1.72,1.72,0,0,1,.285-.378,10.844,10.844,0,0,0,2.516-7.405,10.739,10.739,0,0,0-3.507-7.526A10.924,10.924,0,0,0,114.667-511.751Z" transform="translate(-96.961)" fill="#1d4395"/>
    <path id="Path_83921" data-name="Path 83921" d="M219.6-431.825c-.214.086-.306.292-.306.691v.349l-.5.114a2.174,2.174,0,0,0-1.768,2.323,2.043,2.043,0,0,0,.656,1.425,2.127,2.127,0,0,0,1.682.656c.841.05,1.1.15,1.383.52a1.07,1.07,0,0,1,.1,1.183c-.306.584-.371.606-2,.649a13.762,13.762,0,0,0-1.568.1.561.561,0,0,0-.164.8c.093.121.221.143,1.126.171l1.019.036.036.449c.043.513.157.656.535.656.342,0,.485-.207.52-.734l.029-.442.385-.171a2.132,2.132,0,0,0,1.269-2,2.117,2.117,0,0,0-.641-1.589c-.485-.485-.812-.6-1.9-.684-.741-.057-.927-.143-1.219-.535a1.381,1.381,0,0,1,.014-1.311c.314-.435.47-.47,2.046-.513a12.945,12.945,0,0,0,1.518-.093.569.569,0,0,0,.157-.627c-.114-.271-.349-.349-1.033-.349h-.606v-.321c0-.392-.107-.641-.335-.741A.375.375,0,0,0,219.6-431.825Z" transform="translate(-200.92 -74.232)" fill="#1d4395"/>
    <path id="Path_83922" data-name="Path 83922" d="M33.585-231.681a2.736,2.736,0,0,0-1.026.67l-.242.249-.428-.285a2.541,2.541,0,0,0-2.922-.057c-.321.264-1.589,1.675-3.229,3.585-.6.706-1.1,1.3-1.112,1.311a8.557,8.557,0,0,1-.891-.349,68.269,68.269,0,0,0-11.126-3.756,9.655,9.655,0,0,0-2.516-.2,12.3,12.3,0,0,0-3.606.4,12.251,12.251,0,0,0-5.238,2.723c-.47.442-.549.556-.549.755a.516.516,0,0,0,.52.527c.171,0,.306-.086.592-.349A11.744,11.744,0,0,1,8.7-229.415a14.092,14.092,0,0,1,3.834.178,65.735,65.735,0,0,1,9.215,3.022c2.623,1.055,2.651,1.069,2.951,1.668a1.782,1.782,0,0,1-.406,2.1,1.9,1.9,0,0,1-1.319.413c-.15-.021-1.6-.413-3.236-.862s-3.05-.813-3.143-.813a.576.576,0,0,0-.478.513c0,.413.071.442,3.343,1.34,1.7.47,3.243.877,3.428.9a3.144,3.144,0,0,0,1.482-.278,2.975,2.975,0,0,0,1.554-2.053c.029-.192.064-.349.093-.349.107,0,1.347-.143,1.547-.178.178-.029.363-.214.927-.877,3.25-3.87,4.946-5.766,5.274-5.9a1.762,1.762,0,0,1,2.259,1.6c-.014.634-.306,1.119-1.447,2.4-1,1.126-2.388,2.751-3.421,4l-.535.649-5.595,2.794-5.595,2.794-2.879-1.212c-1.582-.67-2.944-1.219-3.029-1.219a.536.536,0,0,0-.335.884c.143.135,5.894,2.587,6.215,2.651.143.036,1.475-.606,6.022-2.879l5.837-2.922.855-1.019c1.012-1.212,2.651-3.122,3.663-4.269a6.7,6.7,0,0,0,.969-1.319,2.7,2.7,0,0,0-1.461-3.884A3.276,3.276,0,0,0,33.585-231.681Zm-2.623,1.347c.741.278.755.228-.5,1.675-.606.706-1.589,1.853-2.174,2.544-1.169,1.383-1,1.276-2.031,1.383-.442.043-.449.036-.535-.164a4,4,0,0,0-.207-.385l-.128-.178,1.19-1.4a37.733,37.733,0,0,1,3.179-3.485A1.409,1.409,0,0,1,30.962-230.334Z" transform="translate(-0.028 -260.114)" fill="#e3141e"/>
    <path id="Path_83923" data-name="Path 83923" d="M.922-78.95a.569.569,0,0,0-.192.235.521.521,0,0,0,.221.706,35.865,35.865,0,0,0,3.87.078h3.7l1.1.463a7.368,7.368,0,0,0,1.29.463.515.515,0,0,0,.349-.87,9.825,9.825,0,0,0-1.319-.62L8.733-79l-3.856.007C2.753-78.993.972-78.971.922-78.95Z" transform="translate(0 -401.969)" fill="#e3141e"/>
  </g>
</svg>
