<svg xmlns="http://www.w3.org/2000/svg" width="26.61" height="26.61" viewBox="0 0 26.61 26.61">
  <path id="Icon_awesome-arrow-alt-circle-down" data-name="Icon awesome-arrow-alt-circle-down" d="M27.173,13.868A13.305,13.305,0,1,0,13.868,27.173,13.3,13.3,0,0,0,27.173,13.868ZM11.507,20.091V13.868H7.7a.644.644,0,0,1-.456-1.1l6.164-6.132a.638.638,0,0,1,.907,0l6.164,6.132a.644.644,0,0,1-.456,1.1h-3.8v6.223a.646.646,0,0,1-.644.644H12.151A.646.646,0,0,1,11.507,20.091Z" transform="translate(-0.563 -0.563)" fill="#e3141e"/>
</svg>
