<svg xmlns="http://www.w3.org/2000/svg" width="17.073" height="21.795" viewBox="0 0 17.073 21.795">
  <g id="pdf-svgrepo-com" transform="translate(-32.842)">
    <path id="Path_83814" data-name="Path 83814" d="M46.283,0H32.842V21.795H49.915V3.632Z" fill="#e8e8e8"/>
    <path id="Path_83815" data-name="Path 83815" d="M91.484,57.672c-.262-.467-1.167-.613-1.582-.679a6.294,6.294,0,0,0-.992-.067c-.26,0-.516.011-.769.025-.093.006-.185.014-.278.022q-.142-.147-.274-.3a10.042,10.042,0,0,1-1.386-2.2,8.7,8.7,0,0,0,.224-1.185,4.948,4.948,0,0,0-.164-2.318c-.1-.247-.356-.547-.654-.4-.343.172-.439.659-.467,1a3.351,3.351,0,0,0,.04.833,5.951,5.951,0,0,0,.208.8q.117.36.258.715c-.06.186-.123.369-.189.547-.155.406-.322.791-.483,1.162l-.249.54a18.286,18.286,0,0,1-.849,1.655,9.279,9.279,0,0,0-1.931.908,4.221,4.221,0,0,0-.765.618,1.346,1.346,0,0,0-.427.792.5.5,0,0,0,.2.441.833.833,0,0,0,.676.088,3.686,3.686,0,0,0,1.784-1.322,14.549,14.549,0,0,0,1.1-1.4l0,0a16.723,16.723,0,0,1,2.2-.518c.358-.059.725-.108,1.1-.142a5.18,5.18,0,0,0,.858.659,3.943,3.943,0,0,0,.768.368,5.5,5.5,0,0,0,.829.207,2.44,2.44,0,0,0,.438.024c.333-.013.811-.14.842-.544A.564.564,0,0,0,91.484,57.672Zm-7.97.741c-.156.242-.306.459-.448.65a3.219,3.219,0,0,1-1.317,1.243,1.018,1.018,0,0,1-.4.072c-.135-.008-.268-.067-.261-.22a.647.647,0,0,1,.1-.283,1.745,1.745,0,0,1,.235-.3,3.907,3.907,0,0,1,.7-.569,8.327,8.327,0,0,1,1.486-.739Zm1.957-6.057a2.744,2.744,0,0,1-.023-.755,1.787,1.787,0,0,1,.075-.356c.031-.1.1-.329.2-.359.175-.049.228.326.248.432a4.753,4.753,0,0,1-.122,1.867c-.021.094-.045.187-.07.279-.042-.115-.082-.231-.118-.347A5.676,5.676,0,0,1,85.471,52.356Zm1.2,4.765a17,17,0,0,0-1.867.41,4.79,4.79,0,0,0,.466-.759,9.245,9.245,0,0,0,.816-1.883,9.2,9.2,0,0,0,1.3,1.956q.073.081.148.16C87.243,57.036,86.953,57.075,86.67,57.12Zm4.438.841c-.024.13-.3.2-.43.224a2.466,2.466,0,0,1-1.152-.111,3.692,3.692,0,0,1-.723-.337,4.29,4.29,0,0,1-.642-.48c.246-.015.5-.025.747-.02a6.319,6.319,0,0,1,.753.048,2.662,2.662,0,0,1,1.361.517C91.094,57.862,91.117,57.915,91.108,57.961Z" transform="translate(-44.468 -46.894)" fill="#fb3449"/>
    <path id="Path_83816" data-name="Path 83816" d="M46.845,1.816h-14V0H46.283Z" fill="#fb3449"/>
    <g id="Group_18413" data-name="Group 18413" transform="translate(37.096 16.238)">
      <path id="Path_83817" data-name="Path 83817" d="M94.525,226.989a1.155,1.155,0,0,1-.341.893,1.375,1.375,0,0,1-.968.315h-.262v1.144h-.932v-3.449h1.194a1.459,1.459,0,0,1,.981.285A1.018,1.018,0,0,1,94.525,226.989Zm-1.571.448h.17a.464.464,0,0,0,.334-.118.428.428,0,0,0,.124-.326q0-.349-.387-.349h-.241Z" transform="translate(-92.022 -225.892)" fill="#a4a9ad"/>
      <path id="Path_83818" data-name="Path 83818" d="M137.416,227.543a1.782,1.782,0,0,1-.475,1.331,1.826,1.826,0,0,1-1.336.467h-1.116v-3.449h1.194a1.8,1.8,0,0,1,1.282.425A1.6,1.6,0,0,1,137.416,227.543Zm-.967.033a1.1,1.1,0,0,0-.188-.7.694.694,0,0,0-.57-.229h-.271v1.932h.208a.751.751,0,0,0,.623-.247A1.191,1.191,0,0,0,136.448,227.576Z" transform="translate(-131.435 -225.892)" fill="#a4a9ad"/>
      <path id="Path_83819" data-name="Path 83819" d="M184.731,229.341h-.918v-3.449h2.038v.748h-1.121v.658h1.033v.748h-1.033v1.3Z" transform="translate(-177.215 -225.892)" fill="#a4a9ad"/>
    </g>
    <path id="Path_83820" data-name="Path 83820" d="M219.821,3.632h3.632L219.821,0Z" transform="translate(-173.538)" fill="#d1d3d3"/>
  </g>
</svg>
