<svg xmlns="http://www.w3.org/2000/svg" width="19.927" height="19.963" viewBox="0 0 19.927 19.963">
  <path id="Icon_feather-phone-call" data-name="Icon feather-phone-call" d="M14.858,5.114a4.518,4.518,0,0,1,3.569,3.569M14.858,1.5a8.132,8.132,0,0,1,7.183,7.174m-.9,7.21V18.6a1.807,1.807,0,0,1-1.97,1.807,17.881,17.881,0,0,1-7.8-2.774,17.619,17.619,0,0,1-5.421-5.421A17.881,17.881,0,0,1,3.175,4.373a1.807,1.807,0,0,1,1.8-1.97H7.684A1.807,1.807,0,0,1,9.491,3.958,11.6,11.6,0,0,0,10.124,6.5,1.807,1.807,0,0,1,9.717,8.4L8.569,9.551a14.457,14.457,0,0,0,5.421,5.421l1.148-1.148a1.807,1.807,0,0,1,1.907-.407,11.6,11.6,0,0,0,2.539.632A1.807,1.807,0,0,1,21.138,15.885Z" transform="translate(-2.667 -0.948)" fill="none" stroke="#404040" stroke-linecap="round" stroke-linejoin="round" stroke-width="1"/>
</svg>
