<svg xmlns="http://www.w3.org/2000/svg" width="42.121" height="28.075" viewBox="0 0 42.121 28.075">
  <g id="_2703934" data-name="2703934" transform="translate(-15.925 415.988)">
    <path id="Path_83911" data-name="Path 83911" d="M17.335-415.875a2.8,2.8,0,0,0-1.3,1.342c-.149.526-.149,20.425,0,20.952a2.606,2.606,0,0,0,1.351,1.351,52.137,52.137,0,0,0,5.431.105H27.89l-.061.281a5.676,5.676,0,0,1-1.106,2.027l-.456.5H25.53c-.676,0-.763.018-.956.219a.645.645,0,0,0,0,.965l.211.219h8.967l.211-.219a.684.684,0,0,0,.219-.483.684.684,0,0,0-.219-.483l-.211-.219H30.979c-1.518,0-2.764-.018-2.764-.035s.14-.263.307-.544a5.063,5.063,0,0,0,.7-1.816l.061-.412h4.466l.211-.219a.645.645,0,0,0,0-.965l-.211-.219H17.765l-.211-.219c-.219-.211-.219-.211-.219-2.106v-1.886H33.751l.211-.219a.684.684,0,0,0,.219-.483.684.684,0,0,0-.219-.483l-.211-.219H17.335v-15.012l.219-.211.211-.219H44.982l.211.219a.684.684,0,0,1,.219.483.693.693,0,0,0,1.184.483c.246-.237.281-.57.114-1.132a2.606,2.606,0,0,0-1.351-1.351C44.868-416.024,17.8-416.024,17.335-415.875Z" transform="translate(0)" fill="#1d4395"/>
    <path id="Path_83912" data-name="Path 83912" d="M241.335-367.841a2.8,2.8,0,0,0-1.3,1.342c-.149.509-.149,20.425,0,20.926A2.3,2.3,0,0,0,241.2-344.3l.447.211h9.09l.211-.219a.645.645,0,0,0,0-.965l-.211-.219h-8.967l-.211-.219c-.219-.211-.219-.211-.219-2.106v-1.886h9.4l.211-.219a.645.645,0,0,0,0-.965l-.211-.219h-9.4v-12.634h14.038v1.184c0,1.149.009,1.2.219,1.4a.645.645,0,0,0,.965,0l.219-.211v-2.386a17.71,17.71,0,0,0-.105-2.746,2.605,2.605,0,0,0-1.351-1.351C254.83-367.991,241.792-367.982,241.335-367.841Zm13.819,1.509c.184.176.219.3.219.7v.483H241.335v-.483c0-.4.035-.526.219-.7l.211-.219h13.178Z" transform="translate(-204.347 -43.822)" fill="#e3141e"/>
    <path id="Path_83913" data-name="Path 83913" d="M48.219-351.781c-.211.2-.219.272-.219,1.184s.009.983.219,1.185a.684.684,0,0,0,.483.219.684.684,0,0,0,.483-.219c.211-.2.219-.272.219-1.185s-.009-.983-.219-1.184A.684.684,0,0,0,48.7-352,.684.684,0,0,0,48.219-351.781Z" transform="translate(-29.261 -58.374)" fill="#e3141e"/>
    <path id="Path_83914" data-name="Path 83914" d="M48.219-303.781,48-303.57v4.755l.219.211a.684.684,0,0,0,.483.219.684.684,0,0,0,.483-.219l.219-.211v-4.755l-.219-.211A.684.684,0,0,0,48.7-304,.684.684,0,0,0,48.219-303.781Z" transform="translate(-29.261 -102.162)" fill="#e3141e"/>
    <path id="Path_83915" data-name="Path 83915" d="M272.219-303.781c-.211.2-.219.272-.219,1.184s.009.983.219,1.185a.684.684,0,0,0,.483.219.684.684,0,0,0,.483-.219c.211-.2.219-.272.219-1.185s-.009-.983-.219-1.184A.684.684,0,0,0,272.7-304,.684.684,0,0,0,272.219-303.781Z" transform="translate(-233.607 -102.162)" fill="#e3141e"/>
    <path id="Path_83916" data-name="Path 83916" d="M385.335-271.841a2.8,2.8,0,0,0-1.3,1.342c-.149.509-.149,12.011,0,12.5a2.3,2.3,0,0,0,1.158,1.272c.447.211.474.211,3.65.211,3.036,0,3.22-.018,3.6-.184a2.064,2.064,0,0,0,1.105-1.088l.211-.439v-5.957c0-4.422-.026-6.045-.105-6.317a2.606,2.606,0,0,0-1.351-1.351A57.675,57.675,0,0,0,385.335-271.841Zm6.8,1.509c.184.175.219.3.219.7v.483h-7.019v-.483c0-.4.035-.526.219-.7l.211-.219h6.159Zm.219,6.1v3.51h-7.019v-7.019h7.019Zm0,5.4c0,.4-.035.526-.219.7l-.211.219h-6.159l-.211-.219c-.184-.175-.219-.3-.219-.7v-.483h7.019Z" transform="translate(-335.712 -131.399)" fill="#1d4395"/>
    <path id="Path_83917" data-name="Path 83917" d="M272.219-255.781l-.219.211v4.755l.219.211a.684.684,0,0,0,.483.219.684.684,0,0,0,.483-.219l.219-.211v-4.755l-.219-.211A.684.684,0,0,0,272.7-256,.684.684,0,0,0,272.219-255.781Z" transform="translate(-233.607 -145.951)" fill="#e3141e"/>
    <path id="Path_83918" data-name="Path 83918" d="M176.228-191.816a.546.546,0,0,0-.228.518.546.546,0,0,0,.228.518c.2.158.36.184,1.193.184.895,0,.965-.009,1.167-.219a.684.684,0,0,0,.219-.483.684.684,0,0,0-.219-.483c-.2-.211-.272-.219-1.167-.219C176.588-192,176.43-191.974,176.228-191.816Z" transform="translate(-146.03 -204.336)" fill="#e3141e"/>
    <path id="Path_83919" data-name="Path 83919" d="M320.219-143.781a.684.684,0,0,0-.219.483.684.684,0,0,0,.219.483c.2.211.272.219,1.184.219s.983-.009,1.184-.219a.684.684,0,0,0,.219-.483.684.684,0,0,0-.219-.483c-.2-.211-.272-.219-1.184-.219S320.421-143.991,320.219-143.781Z" transform="translate(-277.396 -248.124)" fill="#e3141e"/>
  </g>
</svg>
