<svg xmlns="http://www.w3.org/2000/svg" width="29.41" height="29.41" viewBox="0 0 29.41 29.41">
  <path id="Icon_awesome-user-circle" data-name="Icon awesome-user-circle" d="M14.7.562a14.7,14.7,0,1,0,14.7,14.7A14.7,14.7,0,0,0,14.7.562Zm0,5.692a5.218,5.218,0,1,1-5.218,5.218A5.218,5.218,0,0,1,14.7,6.255Zm0,20.4a11.362,11.362,0,0,1-8.687-4.044,6.611,6.611,0,0,1,5.84-3.546,1.451,1.451,0,0,1,.421.065,7.851,7.851,0,0,0,2.425.409,7.821,7.821,0,0,0,2.425-.409,1.451,1.451,0,0,1,.421-.065,6.611,6.611,0,0,1,5.84,3.546A11.362,11.362,0,0,1,14.7,26.652Z" transform="translate(0 -0.562)" fill="#8c98b3"/>
</svg>
