<svg id="Icon_ionic-ios-close-circle-outline" data-name="Icon ionic-ios-close-circle-outline" xmlns="http://www.w3.org/2000/svg" width="20.773" height="20.773" viewBox="0 0 20.773 20.773">
  <path id="Path_83710" data-name="Path 83710" d="M20.4,19.229,17.674,16.5,20.4,13.781a.826.826,0,1,0-1.168-1.168l-2.724,2.724-2.724-2.724a.826.826,0,1,0-1.168,1.168L15.338,16.5l-2.724,2.724a.8.8,0,0,0,0,1.168.821.821,0,0,0,1.168,0l2.724-2.724L19.23,20.4a.83.83,0,0,0,1.168,0A.821.821,0,0,0,20.4,19.229Z" transform="translate(-5.755 -5.753)" fill="#f4405f"/>
  <path id="Path_83711" data-name="Path 83711" d="M13.762,4.773A8.985,8.985,0,1,1,7.4,7.4a8.929,8.929,0,0,1,6.357-2.632m0-1.4A10.387,10.387,0,1,0,24.148,13.762,10.385,10.385,0,0,0,13.762,3.375Z" transform="translate(-3.375 -3.375)" fill="#f4405f"/>
</svg>
