<svg xmlns="http://www.w3.org/2000/svg" width="15.861" height="20.981" viewBox="0 0 15.861 20.981">
  <path id="Icon_awesome-file-pdf" data-name="Icon awesome-file-pdf" d="M7.276,10.244A3.859,3.859,0,0,1,7.2,8.368C7.532,8.368,7.5,9.844,7.276,10.244Zm-.068,1.888a18.458,18.458,0,0,1-1.136,2.508,14.73,14.73,0,0,1,2.516-.876A5.182,5.182,0,0,1,7.208,12.133ZM3.444,17.125c0,.032.528-.216,1.4-1.608A5.529,5.529,0,0,0,3.444,17.125ZM9.92,6.4h5.44V19.521a.958.958,0,0,1-.96.96H.96a.958.958,0,0,1-.96-.96V.96A.958.958,0,0,1,.96,0h8V5.44A.963.963,0,0,0,9.92,6.4ZM9.6,13.273a4.015,4.015,0,0,1-1.708-2.152A5.75,5.75,0,0,0,8.14,8.552,1,1,0,0,0,6.228,8.28a6.651,6.651,0,0,0,.324,3.08A37.563,37.563,0,0,1,4.92,14.793s0,0-.008,0c-1.084.556-2.944,1.78-2.18,2.72a1.243,1.243,0,0,0,.86.4c.716,0,1.428-.72,2.444-2.472a22.8,22.8,0,0,1,3.16-.928,6.062,6.062,0,0,0,2.56.78,1.035,1.035,0,0,0,.788-1.736c-.556-.544-2.172-.388-2.944-.288ZM15.081,4.2,11.161.28A.959.959,0,0,0,10.48,0h-.24V5.12h5.12V4.876A.957.957,0,0,0,15.081,4.2ZM12.117,14.413c.164-.108-.1-.476-1.712-.36C11.889,14.685,12.117,14.413,12.117,14.413Z" transform="translate(0.25 0.25)" fill="none" stroke="#000" stroke-width="0.5"/>
</svg>
