<svg xmlns="http://www.w3.org/2000/svg" width="41.737" height="36.256" viewBox="0 0 41.737 36.256">
  <g id="e-rate" transform="translate(-879 -4160.504)">
    <g id="Group_12924" data-name="Group 12924" transform="translate(879 4161.004)">
      <path id="Path_5655" data-name="Path 5655" d="M707.334,199.741h12.407v20.893H707.334" transform="translate(-707.334 -185.379)" fill="none" stroke="#e3141e" stroke-linejoin="round" stroke-width="1"/>
      <path id="Path_5656" data-name="Path 5656" d="M714.935,205.307H718.2l7.18-7.182,2.613-5.221a1.958,1.958,0,0,1,1.959-1.959,2.612,2.612,0,0,1,2.611,2.611,20.57,20.57,0,0,1-.655,3.917l-3.264,7.182.654.653h10.446a2.611,2.611,0,1,1,0,5.221h1.306a2.611,2.611,0,1,1,0,5.221h-1.306a2.611,2.611,0,1,1,0,5.221h-1.307a2.611,2.611,0,1,1,0,5.221H721.464l-2.613-1.306h-1.957" transform="translate(-702.528 -190.945)" fill="none" stroke="#1d4395" stroke-linejoin="round" stroke-width="1"/>
      <line id="Line_270" data-name="Line 270" x1="1.306" transform="translate(9.141 32.643)" fill="none" stroke="#e3141e" stroke-linejoin="round" stroke-width="1"/>
      <line id="Line_271" data-name="Line 271" x1="1.308" transform="translate(6.529 32.643)" fill="none" stroke="#e3141e" stroke-linejoin="round" stroke-width="1"/>
      <line id="Line_272" data-name="Line 272" y2="20.893" transform="translate(3.264 14.363)" fill="none" stroke="#e3141e" stroke-linejoin="round" stroke-width="1"/>
      <line id="Line_273" data-name="Line 273" x1="7.182" transform="translate(30.035 19.585)" fill="none" stroke="#1d4395" stroke-linejoin="round" stroke-width="1"/>
      <line id="Line_274" data-name="Line 274" x1="6.529" transform="translate(30.688 24.809)" fill="none" stroke="#1d4395" stroke-linejoin="round" stroke-width="1"/>
      <line id="Line_275" data-name="Line 275" x1="5.222" transform="translate(30.688 30.032)" fill="none" stroke="#1d4395" stroke-linejoin="round" stroke-width="1"/>
      <path id="Path_5657" data-name="Path 5657" d="M727.628,204.967a2.611,2.611,0,0,1,0-5.221" transform="translate(-696.289 -185.382)" fill="none" stroke="#1d4395" stroke-linejoin="round" stroke-width="1"/>
      <path id="Path_5658" data-name="Path 5658" d="M726.663,208.166a2.611,2.611,0,1,1,0-5.221" transform="translate(-696.629 -183.357)" fill="none" stroke="#1d4395" stroke-linejoin="round" stroke-width="1"/>
      <path id="Path_5659" data-name="Path 5659" d="M727.067,211.367a2.611,2.611,0,1,1,0-5.221" transform="translate(-696.379 -181.334)" fill="none" stroke="#1d4395" stroke-linejoin="round" stroke-width="1"/>
      <path id="Path_5660" data-name="Path 5660" d="M727.867,214.566a2.611,2.611,0,1,1,0-5.221" transform="translate(-695.873 -179.311)" fill="none" stroke="#1d4395" stroke-linejoin="round" stroke-width="1"/>
    </g>
  </g>
</svg>
