<svg xmlns="http://www.w3.org/2000/svg" width="63" height="70" viewBox="0 0 63 70">
  <g id="neww" transform="translate(-4 -3)">
    <path id="Path_83802" data-name="Path 83802" d="M23.28,39.029a.97.97,0,0,1-.691-.291l-12.1-12.367a1.014,1.014,0,0,1,0-1.41.962.962,0,0,1,1.38,0L23.28,36.623,46.8,12.593a.962.962,0,0,1,1.38,0,1.014,1.014,0,0,1,0,1.41L23.971,38.738A.97.97,0,0,1,23.28,39.029Z" transform="translate(6.168 9.244)" fill="#e3141e"/>
    <path id="Path_83803" data-name="Path 83803" d="M35.5,73a.986.986,0,0,1-.283-.042C33.943,72.571,4,63.216,4,41.091V4a.991.991,0,0,1,.984-1H66.016A.991.991,0,0,1,67,4V41.091c0,22.127-29.943,31.48-31.216,31.867A.987.987,0,0,1,35.5,73ZM5.969,4.994v36.1c0,19.568,26.482,28.862,29.531,29.867,3.05-1.005,29.531-10.315,29.531-29.867V4.994Z" transform="translate(0 0)" fill="#1d4395"/>
  </g>
</svg>
