<svg xmlns="http://www.w3.org/2000/svg" width="24.08" height="24.08" viewBox="0 0 24.08 24.08">
  <path id="Icon_awesome-arrow-alt-circle-right" data-name="Icon awesome-arrow-alt-circle-right" d="M12.6.563A12.04,12.04,0,1,1,.563,12.6,12.038,12.038,0,0,1,12.6.563ZM6.971,14.739H12.6v3.442a.583.583,0,0,0,1,.413l5.549-5.578a.577.577,0,0,0,0-.82L13.6,6.612a.583.583,0,0,0-1,.413v3.442H6.971a.584.584,0,0,0-.583.583v3.107A.584.584,0,0,0,6.971,14.739Z" transform="translate(-0.563 -0.563)" fill="#fff"/>
</svg>
