<svg xmlns="http://www.w3.org/2000/svg" width="43.337" height="37.722" viewBox="0 0 43.337 37.722">
  <g id="e-benefit" transform="translate(-1147.293 -4138.292)">
    <g id="Group_12860" data-name="Group 12860" transform="translate(1148 4138.999)">
      <line id="Line_262" data-name="Line 262" x2="13.524" transform="translate(14.2 9.467)" fill="none" stroke="#1d4395" stroke-miterlimit="10" stroke-width="1"/>
      <path id="Path_5612" data-name="Path 5612" d="M57.777,203.823l-2.029,2.029V207.2l-2.7,2.7" transform="translate(-21.264 -184.889)" fill="none" stroke="#1d4395" stroke-linecap="round" stroke-miterlimit="10" stroke-width="1"/>
      <path id="Path_5613" data-name="Path 5613" d="M46.245,208.526l7.438,7.438a2.361,2.361,0,0,0,1.352.676,2.029,2.029,0,0,0,2.029-2.028,2.361,2.361,0,0,0-.676-1.353l-7.438-7.437" transform="translate(-25.959 -183.509)" fill="none" stroke="#1d4395" stroke-linecap="round" stroke-miterlimit="10" stroke-width="1"/>
      <path id="Path_5614" data-name="Path 5614" d="M54.111,213.079a2.361,2.361,0,0,1,.676,1.352,2.029,2.029,0,0,1-2.028,2.029,2.361,2.361,0,0,1-1.353-.676l-6.762-6.762" transform="translate(-27.063 -181.299)" fill="none" stroke="#1d4395" stroke-linecap="round" stroke-miterlimit="10" stroke-width="1"/>
      <path id="Path_5615" data-name="Path 5615" d="M55.026,218.021a2.361,2.361,0,0,1,.676,1.352,2.029,2.029,0,0,1-2.028,2.029,2.361,2.361,0,0,1-1.353-.676L40.15,208.555v-2.03l-2.7-2.7" transform="translate(-32.035 -184.887)" fill="none" stroke="#1d4395" stroke-linecap="round" stroke-miterlimit="10" stroke-width="1"/>
      <path id="Path_5616" data-name="Path 5616" d="M42.426,210.125a2.361,2.361,0,0,1-1.352.676,2.029,2.029,0,0,1-2.029-2.028,2.361,2.361,0,0,1,.676-1.353" transform="translate(-30.931 -182.403)" fill="none" stroke="#1d4395" stroke-linecap="round" stroke-miterlimit="10" stroke-width="1"/>
      <path id="Path_5617" data-name="Path 5617" d="M44.026,211.727a2.359,2.359,0,0,1-1.352.678,2.03,2.03,0,0,1-2.029-2.029,2.361,2.361,0,0,1,.676-1.352" transform="translate(-29.826 -181.299)" fill="none" stroke="#1d4395" stroke-linecap="round" stroke-miterlimit="10" stroke-width="1"/>
      <path id="Path_5618" data-name="Path 5618" d="M45.626,213.325a2.361,2.361,0,0,1-1.352.676,2.029,2.029,0,0,1-2.029-2.028,2.361,2.361,0,0,1,.676-1.353" transform="translate(-28.721 -180.192)" fill="none" stroke="#1d4395" stroke-linecap="round" stroke-miterlimit="10" stroke-width="1"/>
      <path id="Path_5619" data-name="Path 5619" d="M47.226,214.925a2.361,2.361,0,0,1-1.352.676,2.03,2.03,0,0,1-2.029-2.029,2.361,2.361,0,0,1,.676-1.352" transform="translate(-27.616 -179.088)" fill="none" stroke="#1d4395" stroke-linecap="round" stroke-miterlimit="10" stroke-width="1"/>
      <path id="Path_5620" data-name="Path 5620" d="M47.378,198.223l-4.057,4.057a2.361,2.361,0,0,0-.676,1.352,2.03,2.03,0,0,0,2.029,2.029,2.361,2.361,0,0,0,1.352-.676l3.381-3.381h2.029v4.057l8.79,8.789A2.361,2.361,0,0,1,60.9,215.8a2.029,2.029,0,0,1-2.028,2.029,2.361,2.361,0,0,1-1.353-.676" transform="translate(-28.445 -188.756)" fill="none" stroke="#1d4395" stroke-linecap="round" stroke-miterlimit="10" stroke-width="1"/>
      <path id="Path_5621" data-name="Path 5621" d="M52.7,202.223a2.029,2.029,0,0,1-2.028,2.029H48.645" transform="translate(-24.302 -185.994)" fill="none" stroke="#1d4395" stroke-miterlimit="10" stroke-width="1"/>
      <path id="Path_5622" data-name="Path 5622" d="M65.4,208.174l-3.381,3.381H60.663L49.845,200.737v-1.352l6.762-6.762" transform="translate(-23.474 -192.622)" fill="none" stroke="#e3141e" stroke-linecap="round" stroke-linejoin="round" stroke-width="1"/>
      <path id="Path_5623" data-name="Path 5623" d="M34.245,208.174l3.381,3.381h1.352L49.8,200.737v-1.352l-6.762-6.762" transform="translate(-34.245 -192.622)" fill="none" stroke="#e3141e" stroke-linecap="round" stroke-linejoin="round" stroke-width="1"/>
      <line id="Line_263" data-name="Line 263" y1="1.352" x2="1.352" transform="translate(37.866 12.848)" fill="none" stroke="#e3141e" stroke-linecap="round" stroke-miterlimit="10" stroke-width="1"/>
      <line id="Line_264" data-name="Line 264" x2="1.352" y2="1.352" transform="translate(2.704 12.848)" fill="none" stroke="#e3141e" stroke-linecap="round" stroke-miterlimit="10" stroke-width="1"/>
    </g>
  </g>
</svg>
