<svg id="search-folder-icon-icon-11553505332izlgii3xwy" xmlns="http://www.w3.org/2000/svg" width="45.224" height="41.587" viewBox="0 0 45.224 41.587">
  <path id="Path_83804" data-name="Path 83804" d="M5.654-812.9A2.477,2.477,0,0,0,4.2-811.6l-.174.363-.016,15.607L4-780.03l.114.336a2.427,2.427,0,0,0,1.9,1.611c.233.038,4.213.06,12.087.06H29.834l-.352-.369c-.2-.2-.45-.477-.564-.624l-.2-.255H17.4c-10.894,0-11.317-.005-11.529-.1a1.184,1.184,0,0,1-.591-.613c-.076-.179-.087-1.448-.087-11.93,0-11.279.005-11.74.1-11.952a1.373,1.373,0,0,1,.792-.667c.336-.087,37.677-.087,38.013,0a1.373,1.373,0,0,1,.792.667c.1.211.1.672.1,11.914v11.691l.211.07a3.2,3.2,0,0,1,.813.477l.168.125v-12.087c0-11.615-.005-12.109-.1-12.418a2.5,2.5,0,0,0-.835-1.182,2.4,2.4,0,0,0-1.491-.5l-.559-.027v-.662a3.255,3.255,0,0,0-.266-1.578,2.576,2.576,0,0,0-1.735-1.323c-.19-.033-4.311-.054-11.773-.054H17.947l-.358-.857a10.175,10.175,0,0,0-.548-1.128,3.653,3.653,0,0,0-1.611-1.329C14.78-813,14.813-813,10.236-813,6.288-812.995,5.9-812.989,5.654-812.9Zm9.078,1.2a2.484,2.484,0,0,1,1.106.71,6.864,6.864,0,0,1,.976,1.979l.342.813,12.038.027c10.406.022,12.06.038,12.147.1.559.428.618.575.618,1.524v.759H24.075c-19.359,0-18.215-.016-18.708.271l-.174.1v-2.69a24.905,24.905,0,0,1,.065-2.912,1.39,1.39,0,0,1,.7-.732c.108-.027,1.855-.054,4.311-.054C14.178-811.807,14.417-811.8,14.731-811.7Z" transform="translate(-4 813)" fill="#fff"/>
  <path id="Path_83810" data-name="Path 83810" d="M466.121-423.76a7.713,7.713,0,0,0-3.243,1.415,7.361,7.361,0,0,0-2.619,4.04,8.168,8.168,0,0,0-.1,2.814,7.271,7.271,0,0,0,3.167,4.9,7.05,7.05,0,0,0,2.7,1.09,8.29,8.29,0,0,0,2.69-.022,7.5,7.5,0,0,0,3.14-1.47l.136-.108.862.862c.808.808.857.868.775.96a1.263,1.263,0,0,0-.19,1.22,64.934,64.934,0,0,0,4.62,4.6,1.123,1.123,0,0,0,.813.043c.168-.049.369-.206.857-.694.71-.694.786-.808.835-1.2.06-.526.049-.542-2.315-2.907-1.372-1.366-2.245-2.2-2.37-2.256a1.26,1.26,0,0,0-1.226.157c-.092.087-.141.049-.96-.77l-.862-.862.108-.136a7.429,7.429,0,0,0,1.464-3.134,7.947,7.947,0,0,0,0-2.82,7.265,7.265,0,0,0-6-5.737A8.651,8.651,0,0,0,466.121-423.76Zm2.522,1.269a6.037,6.037,0,0,1,4.257,3.644,6.29,6.29,0,0,1,.108,4.159,5.725,5.725,0,0,1-1.459,2.315,5.827,5.827,0,0,1-4.262,1.768,5.975,5.975,0,0,1-3.926-1.459,6.214,6.214,0,0,1-1.968-3.324,7.08,7.08,0,0,1,.054-2.663,5.744,5.744,0,0,1,.851-1.9,6.013,6.013,0,0,1,4.089-2.625A7,7,0,0,1,468.642-422.491Zm8.752,15.091,1.985,1.947-.423.456-.418.456-1.99-1.99-1.99-1.99.39-.418a2.745,2.745,0,0,1,.428-.412C475.394-409.346,476.3-408.468,477.395-407.4Z" transform="translate(-435.347 444.941)" fill="#fff"/>
</svg>
