<svg xmlns="http://www.w3.org/2000/svg" width="44.66" height="31.262" viewBox="0 0 44.66 31.262">
  <path id="Icon_awesome-cloud-upload-alt" data-name="Icon awesome-cloud-upload-alt" d="M37.514,15.829a6.707,6.707,0,0,0-6.252-9.113,6.665,6.665,0,0,0-3.719,1.13A11.166,11.166,0,0,0,6.7,13.415c0,.188.007.377.014.565a10.051,10.051,0,0,0,3.336,19.532H35.728a8.931,8.931,0,0,0,1.786-17.682ZM27.452,20.114H22.888v7.815a1.12,1.12,0,0,1-1.116,1.116H18.422a1.12,1.12,0,0,1-1.116-1.116V20.114H12.742a1.114,1.114,0,0,1-.789-1.905l7.355-7.355a1.12,1.12,0,0,1,1.577,0l7.355,7.355a1.116,1.116,0,0,1-.789,1.905Z" transform="translate(0 -2.25)" fill="#e3141e"/>
</svg>
